# xmcd
# 
# Track frame offsets:
#     150
#     16904
#     33233
#     49970
#     63113
#     76973
#     95680
#     113599
#     130924
#     151503
#     163970
#     183535
# 
# Disc length: 2721
# 
# Revision: 5
# Processed by: cddbd v1.5.2PL0 Copyright (c) Steve Scherf et al.
# Submitted via: fre:ac v1.0.31
# 
DISCID=8f0a9f0c
DTITLE=Dwight Yoakam - 3 Pears
DYEAR=2012
DGENRE=Country
TTITLE0=Take Hold of My Hand
TTITLE1=Waterfall
TTITLE2=Dim Lights, Thick Smoke
TTITLE3=Trying
TTITLE4=Nothing But Love
TTITLE5=It's Never Alright
TTITLE6=A Heart Like Mine
TTITLE7=Long Way To Go
TTITLE8=Missing Heart
TTITLE9=3 Pears
TTITLE10=Rock It All Away
TTITLE11=Long Way To Go (Reprise)
EXTD=YEAR: 2012
EXTT0=
EXTT1=
EXTT2=
EXTT3=
EXTT4=
EXTT5=
EXTT6=
EXTT7=
EXTT8=
EXTT9=
EXTT10=
EXTT11=
PLAYORDER=
